<svg width="702" height="654" viewBox="0 0 702 654" fill="none" xmlns="http://www.w3.org/2000/svg">
<path opacity="0.1" d="M351 653.175C544.852 653.175 702 638.601 702 620.624C702 602.647 544.852 588.074 351 588.074C157.148 588.074 0 602.647 0 620.624C0 638.601 157.148 653.175 351 653.175Z" fill="#605BFF"/>
<path d="M553.123 291.259L545.238 292.466L554.363 352.041L562.248 350.834L553.123 291.259Z" fill="#FAB623"/>
<path d="M553.118 291.301L545.318 292.542L547.091 286.515L547.977 283.325L549.75 285.983L553.118 291.301Z" fill="#FF8C64"/>
<path d="M561.623 346.593L553.738 347.801L554.409 352.182L562.293 350.974L561.623 346.593Z" fill="#35252F"/>
<path d="M562.334 354.405L555.421 355.469C555.066 355.469 554.889 355.292 554.889 354.937L554.357 351.924L562.334 350.683L562.866 353.696C562.866 354.051 562.689 354.405 562.334 354.405Z" fill="#EF452F"/>
<path d="M549.748 285.983L547.089 286.515L547.975 283.325L549.748 285.983Z" fill="#35252F"/>
<path d="M553.759 347.805L561.644 346.597L561.161 343.443L553.276 344.651L553.759 347.805Z" fill="#F68407"/>
<path d="M547.623 295.201L554.359 339.338C554.359 339.693 554.713 339.87 555.068 339.87C555.422 339.87 555.599 339.515 555.599 339.161L548.864 295.023C548.864 294.669 548.509 294.491 548.154 294.491C547.8 294.491 547.623 294.846 547.623 295.201Z" fill="#F68407"/>
<path d="M550.812 294.669L557.548 338.807C557.548 339.161 557.903 339.339 558.257 339.339C558.612 339.339 558.789 338.984 558.789 338.63L552.053 294.492C552.053 294.138 551.699 293.96 551.344 293.96C550.989 293.96 550.812 294.315 550.812 294.669Z" fill="#F68407"/>
<path d="M567.381 291.465L559.404 291.491L559.6 351.76L567.577 351.734L567.381 291.465Z" fill="#4F9D5C"/>
<path d="M567.475 291.477L559.499 291.654L562.158 285.804L563.398 282.968L564.816 285.804L567.475 291.477Z" fill="#FF8C64"/>
<path d="M567.649 347.479L559.672 347.505L559.686 351.936L567.663 351.91L567.649 347.479Z" fill="#35252F"/>
<path d="M567.122 355.291H560.209C559.854 355.291 559.677 355.114 559.677 354.76V351.746H567.654V354.76C567.654 355.114 567.476 355.291 567.122 355.291Z" fill="#EF452F"/>
<path d="M564.818 285.806H562.159L563.4 282.97L564.818 285.806Z" fill="#35252F"/>
<path d="M559.67 347.508L567.646 347.482L567.636 344.291L559.659 344.317L559.67 347.508Z" fill="#3C7341"/>
<path d="M561.447 294.49L561.625 339.16C561.625 339.514 561.979 339.692 562.156 339.692C562.511 339.692 562.688 339.337 562.688 339.16L562.511 294.49C562.511 294.136 562.156 293.959 561.979 293.959C561.802 293.959 561.447 294.136 561.447 294.49Z" fill="#3C7341"/>
<path d="M564.64 294.492L564.817 339.161C564.817 339.516 565.171 339.693 565.349 339.693C565.703 339.693 565.88 339.338 565.88 339.161L565.703 294.492C565.703 294.137 565.349 293.96 565.171 293.96C564.817 293.96 564.64 294.137 564.64 294.492Z" fill="#3C7341"/>
<path d="M581.273 292.384L573.375 291.262L564.895 350.933L572.793 352.056L581.273 292.384Z" fill="#1B6BFE"/>
<path d="M581.302 292.365L573.325 291.301L576.693 285.983L578.466 283.325L579.529 286.338L581.302 292.365Z" fill="#FF8C64"/>
<path d="M573.437 347.769L565.539 346.647L564.916 351.034L572.813 352.157L573.437 347.769Z" fill="#35252F"/>
<path d="M571.73 355.469L564.817 354.406C564.462 354.406 564.285 354.051 564.285 353.874L564.639 350.861L572.616 351.924L572.262 354.938C572.262 355.292 572.084 355.469 571.73 355.469Z" fill="#EF452F"/>
<path d="M579.53 286.338L576.693 285.983L578.466 283.325L579.53 286.338Z" fill="#35252F"/>
<path d="M565.486 346.52L573.384 347.643L573.832 344.484L565.935 343.361L565.486 346.52Z" fill="#1B48CA"/>
<path d="M574.92 294.492L568.715 338.63C568.715 338.984 568.893 339.339 569.247 339.339C569.602 339.339 569.956 339.161 569.956 338.807L576.16 294.669C576.16 294.315 575.983 293.96 575.629 293.96C575.274 293.96 574.92 294.137 574.92 294.492Z" fill="#1B48CA"/>
<path d="M577.935 295.024L571.731 339.161C571.731 339.516 571.908 339.87 572.262 339.87C572.617 339.87 572.971 339.693 572.971 339.339L579.175 295.201C579.175 294.847 578.998 294.492 578.644 294.492C578.289 294.315 578.112 294.669 577.935 295.024Z" fill="#1B48CA"/>
<path d="M583.963 315.409L583.431 318.6L583.076 321.613L582.545 326.045L582.19 328.881L581.481 333.489L581.126 336.326L580.595 340.757L580.24 343.593L579.708 348.202L579.354 351.038L578.645 355.647L578.29 358.306L577.936 360.787H546.561L546.206 358.306L545.852 355.647L545.32 351.038L544.966 348.202L544.434 343.593L544.079 340.757L543.37 336.326L543.016 333.489L542.484 328.881L542.129 326.045L541.598 321.613L541.243 318.6L540.711 315.409H583.963Z" fill="#EF452F"/>
<path d="M583.43 318.599L583.075 321.613H541.596L541.242 318.599H583.43Z" fill="#AD2F24"/>
<path d="M582.544 326.045L582.19 328.881H542.484L542.129 326.045H582.544Z" fill="#AD2F24"/>
<path d="M581.48 333.488L581.125 336.324H543.369L543.015 333.488H581.48Z" fill="#AD2F24"/>
<path d="M580.593 340.757L580.238 343.593H544.432L544.077 340.757H580.593Z" fill="#AD2F24"/>
<path d="M579.707 348.202L579.352 351.039H545.318L544.964 348.202H579.707Z" fill="#AD2F24"/>
<path d="M578.642 355.645L578.288 358.304H546.204L545.849 355.645H578.642Z" fill="#AD2F24"/>
<path d="M231.069 107.597C258.97 107.597 281.588 84.9785 281.588 57.0776C281.588 29.1768 258.97 6.55865 231.069 6.55865C203.168 6.55865 180.55 29.1768 180.55 57.0776C180.55 84.9785 203.168 107.597 231.069 107.597Z" fill="#FFCDB3"/>
<path d="M231.069 101.038C258.97 101.038 281.588 78.4199 281.588 50.519C281.588 22.6181 258.97 0 231.069 0C203.168 0 180.55 22.6181 180.55 50.519C180.55 78.4199 203.168 101.038 231.069 101.038Z" fill="#EF452F"/>
<path d="M231.068 91.6423C253.757 91.6423 272.192 73.2073 272.192 50.518C272.192 27.8288 253.757 9.3938 231.068 9.3938C208.378 9.3938 189.943 27.8288 189.943 50.518C189.943 73.2073 208.378 91.6423 231.068 91.6423Z" fill="white"/>
<path d="M189.943 50.518C189.943 51.5816 189.943 52.6451 190.121 53.7087C191.716 32.6148 209.619 15.7751 231.068 15.7751C252.693 15.7751 270.419 32.4375 272.015 53.7087C272.015 52.6451 272.192 51.5816 272.192 50.518C272.192 27.8288 253.757 9.3938 231.068 9.3938C208.378 9.3938 189.943 27.8288 189.943 50.518Z" fill="#FFDECB"/>
<path d="M231.069 54.7735C231.423 54.7735 231.778 54.5962 231.955 54.4189L252.163 27.2982C252.517 26.7664 252.34 26.2347 251.985 25.8801C251.454 25.5256 250.922 25.7029 250.567 26.0574L230.892 52.6463L208.38 42.7198C207.848 42.5425 207.316 42.7198 206.961 43.2516C206.784 43.7834 206.961 44.3151 207.493 44.6697L230.537 54.7735C230.714 54.7735 230.892 54.7735 231.069 54.7735Z" fill="#35252F"/>
<path d="M534.002 327.245L491.8 469.862C489.859 476.168 484.038 480.534 477.57 480.534L306.172 481.019C297.117 481.019 289.84 473.419 290.325 464.364C290.81 455.956 297.763 449.326 306.172 449.326H371.659L424.21 303.153H515.892C528.505 303.153 537.56 315.28 534.002 327.245Z" fill="#FFD66B"/>
<path d="M427.929 461.777C406.407 461.777 388.96 461.487 388.96 461.13C388.96 460.773 406.407 460.483 427.929 460.483C449.451 460.483 466.898 460.773 466.898 461.13C466.898 461.487 449.451 461.777 427.929 461.777Z" fill="#263238"/>
<path d="M521.39 307.68C521.066 307.519 509.424 341.637 495.356 384.001C481.289 426.204 470.132 460.484 470.455 460.646C470.779 460.807 482.421 426.689 496.488 384.325C510.556 342.122 521.713 307.68 521.39 307.68Z" fill="#263238"/>
<path d="M396.076 607.304L406.586 606.981V480.534H396.076V607.304Z" fill="#FFD66B"/>
<path d="M449.92 606.657H352.74L396.722 591.458H407.232L449.92 606.657Z" fill="#FFD66B"/>
<path d="M474.5 270.327L458.492 350.69L461.402 411.003L353.227 393.055L357.431 340.341L357.593 296.683L331.075 348.103L310.378 308.164L348.215 239.766C355.168 232.651 363.253 227.315 372.954 223.758C377.644 221.979 382.656 221.009 388.477 220.848C400.928 224.728 413.379 224.728 425.991 220.848C427.446 221.009 429.548 221.171 432.297 221.494C432.459 221.494 432.62 221.494 432.782 221.494C455.743 224.243 473.206 243.323 474.5 266.446V270.327Z" fill="#605BFF"/>
<path d="M432.135 221.494C432.135 221.494 476.602 221.817 482.1 268.709L482.908 303.151L444.586 302.827L432.135 221.494Z" fill="#605BFF"/>
<path d="M325.9 281.807C325.9 282.131 360.827 282.454 404 282.454C447.173 282.454 482.099 282.131 482.099 281.807C482.099 281.484 447.173 281.161 404 281.161C360.827 281.161 325.9 281.484 325.9 281.807Z" fill="#FAFAFA"/>
<path d="M325.9 289.246C325.9 289.569 360.827 289.892 404 289.892C447.173 289.892 482.099 289.569 482.099 289.246C482.099 288.922 447.173 288.599 404 288.599C360.827 288.599 325.9 288.922 325.9 289.246Z" fill="#FAFAFA"/>
<path d="M328.487 275.663C328.487 275.987 362.929 276.31 405.293 276.31C447.658 276.31 482.099 275.987 482.099 275.663C482.099 275.34 447.658 275.016 405.293 275.016C362.767 275.016 328.487 275.34 328.487 275.663Z" fill="#FAFAFA"/>
<path d="M358.079 348.104C358.402 348.104 358.24 329.024 357.755 305.578C357.27 282.132 356.623 263.051 356.138 263.051C355.815 263.051 355.977 282.132 356.462 305.578C357.108 329.024 357.755 348.104 358.079 348.104Z" fill="#263238"/>
<path d="M373.277 317.22C373.277 317.22 352.257 318.675 348.538 324.334C344.819 329.832 338.998 345.678 341.1 345.84C343.364 346.002 344.819 344.708 344.819 344.708L350.64 334.521C350.64 334.521 349.67 344.385 353.227 344.546C356.623 344.708 373.763 348.104 373.763 348.104L373.277 317.22Z" fill="#FFBE9D"/>
<path d="M482.747 293.934V348.103C482.1 360.715 470.134 369.77 457.845 367.183L373.116 349.72L373.278 314.955L446.365 329.022L447.335 292.317L482.747 293.934Z" fill="#605BFF"/>
<path d="M434.399 362.818C434.399 362.818 434.075 362.656 433.267 362.495C432.458 362.333 431.326 362.009 430.033 361.686C427.122 361.039 422.918 360.231 417.582 359.099C406.748 356.835 391.549 353.763 373.439 350.044L373.924 350.529C373.924 339.695 373.924 327.568 373.924 314.794L373.277 315.441C378.128 316.411 383.141 317.381 388.153 318.351C409.497 322.394 429.548 326.274 446.364 329.508L447.011 329.67V329.023C446.526 312.854 446.041 299.433 445.717 289.893C445.556 285.203 445.394 281.646 445.232 279.059C445.232 277.927 445.071 276.957 445.071 276.148C445.071 275.502 444.909 275.178 444.909 275.178C444.909 275.178 444.909 275.502 444.909 276.148C444.909 276.957 444.909 277.765 444.909 279.059C444.909 281.646 445.071 285.365 445.071 290.054C445.232 299.594 445.556 313.015 446.041 329.185L446.688 328.7C429.871 325.466 409.821 321.585 388.477 317.381C383.302 316.411 378.29 315.441 373.601 314.471L372.954 314.309V314.956C372.954 327.73 372.954 339.695 372.954 350.691V351.176L373.439 351.337C391.549 354.895 406.748 357.805 417.582 359.907C422.918 360.878 427.122 361.686 430.033 362.171C431.488 362.333 432.458 362.656 433.428 362.818C434.075 362.818 434.399 362.818 434.399 362.818Z" fill="#263238"/>
<path d="M385.728 221.495C385.728 221.495 385.566 221.818 385.405 222.303C385.243 222.788 384.919 223.597 384.758 224.729C384.273 226.831 384.111 230.065 385.081 233.784C386.051 237.503 388.639 241.707 392.358 245.103C396.238 248.66 401.736 250.924 407.719 250.924C413.702 250.924 419.361 248.498 422.918 244.779C426.476 241.06 428.093 236.371 428.578 232.49C429.063 228.609 428.254 225.376 427.446 223.435C427.122 222.465 426.637 221.656 426.314 221.171C425.99 220.686 425.829 220.363 425.829 220.525C425.667 220.525 426.314 221.656 426.961 223.597C427.607 225.537 428.092 228.609 427.607 232.328C427.122 236.048 425.505 240.413 421.948 243.971C418.552 247.528 413.216 249.792 407.557 249.792C401.898 249.792 396.562 247.69 392.843 244.294C389.124 241.06 386.698 237.179 385.566 233.46C384.434 229.903 384.596 226.669 384.758 224.729C385.566 222.627 385.89 221.495 385.728 221.495Z" fill="#263238"/>
<path d="M381.685 352.469C381.846 352.469 381.846 350.367 381.685 347.133C381.523 343.9 381.361 339.372 381.361 334.359C381.361 329.347 381.361 324.819 381.523 321.585C381.685 318.351 381.685 316.249 381.523 316.249C381.361 316.249 381.038 318.19 380.714 321.585C380.391 324.819 380.229 329.509 380.229 334.521C380.229 339.534 380.553 344.061 380.876 347.457C381.2 350.529 381.523 352.631 381.685 352.469Z" fill="#FAFAFA"/>
<path d="M386.052 353.44C386.213 353.44 386.213 351.338 386.213 348.104C386.213 344.385 386.052 340.019 386.052 335.33C386.052 330.64 386.052 326.275 386.052 322.556C386.052 319.322 386.052 317.22 385.89 317.22C385.728 317.22 385.405 319.16 385.243 322.556C385.081 325.79 384.92 330.317 384.92 335.33C384.92 340.342 385.081 344.87 385.405 348.104C385.567 351.499 385.89 353.44 386.052 353.44Z" fill="#FAFAFA"/>
<path d="M301.159 568.658L285.151 612.801L262.352 644.009C260.735 646.273 261.382 649.507 263.646 650.962C264.939 651.77 266.556 651.932 268.011 651.285C277.228 647.405 310.861 633.337 311.831 630.103C312.963 626.222 334.63 578.845 334.63 578.845L301.159 568.658Z" fill="#EF37FF"/>
<g opacity="0.6">
<g opacity="0.6">
<path d="M263.807 650.963L313.125 627.193L312.478 628.972C311.831 630.589 310.699 631.883 309.244 632.691C305.202 634.793 293.883 640.614 268.496 651.286C266.879 651.933 265.101 651.771 263.807 650.963Z" fill="#93079F"/>
</g>
</g>
<g opacity="0.6">
<g opacity="0.6">
<g opacity="0.6">
<path opacity="0.6" d="M309.729 609.568C308.274 609.892 307.304 611.347 307.627 612.802C307.951 614.258 309.406 615.228 310.861 614.904C312.317 614.581 313.448 612.802 313.125 611.509C312.64 610.215 310.861 609.083 309.568 609.73" fill="white"/>
</g>
</g>
</g>
<path d="M281.271 635.762C280.947 635.762 280.947 633.175 278.684 630.911C276.582 628.648 273.994 628.324 273.994 628.001C273.994 627.839 274.641 627.678 275.773 628.001C276.905 628.324 278.199 628.971 279.492 630.265C280.624 631.558 281.271 633.014 281.432 634.145C281.594 635.116 281.432 635.762 281.271 635.762Z" fill="#263238"/>
<path d="M275.774 640.452C275.451 640.613 274.642 638.511 272.702 637.056C270.762 635.439 268.66 635.116 268.66 634.792C268.66 634.469 271.085 634.469 273.349 636.248C275.612 637.864 276.098 640.29 275.774 640.452Z" fill="#263238"/>
<path d="M290.002 630.427C289.679 630.589 288.385 627.517 285.475 624.93C282.564 622.181 279.492 621.21 279.654 620.887C279.654 620.564 283.211 621.21 286.283 624.121C289.356 627.032 290.164 630.427 290.002 630.427Z" fill="#263238"/>
<path d="M295.985 617.491C295.823 617.653 293.721 615.712 290.649 614.419C287.577 612.963 284.828 612.802 284.828 612.64C284.828 612.317 287.738 612.155 291.134 613.61C294.368 614.904 296.147 617.329 295.985 617.491Z" fill="#263238"/>
<path d="M300.998 604.717C300.836 604.879 298.896 602.453 295.5 601.321C292.105 600.028 289.194 600.836 289.194 600.513C289.194 600.351 289.841 600.028 291.134 599.866C292.428 599.704 294.207 599.704 295.985 600.351C297.764 600.998 299.219 601.968 300.028 602.938C300.836 603.908 300.998 604.555 300.998 604.717Z" fill="#263238"/>
<path d="M296.47 598.896C296.47 598.896 296.47 598.249 297.117 597.279C297.602 596.309 298.572 594.854 300.189 593.399C300.998 592.752 301.806 591.943 303.261 591.782C303.908 591.782 304.878 592.267 305.202 592.913C305.525 593.722 305.363 594.53 305.202 595.177C304.07 597.926 300.674 599.705 297.44 598.896C294.206 598.088 292.104 595.177 291.781 592.267C291.781 591.62 291.781 590.65 292.428 590.165C293.074 589.518 294.045 589.518 294.691 590.003C295.985 590.65 296.47 591.782 296.955 592.59C297.925 594.369 298.41 595.986 298.572 597.118C298.734 598.249 298.734 598.896 298.734 598.896C298.572 598.896 298.41 596.309 296.308 592.913C295.823 592.105 295.176 591.135 294.206 590.65C293.721 590.488 293.236 590.488 293.074 590.811C292.751 591.135 292.589 591.62 292.751 592.267C293.074 594.692 295.015 597.279 297.764 597.926C300.512 598.573 303.585 597.118 304.393 594.854C304.555 594.369 304.717 593.722 304.555 593.237C304.393 592.752 304.07 592.59 303.585 592.59C302.615 592.59 301.644 593.237 300.836 593.884C297.44 596.471 296.632 599.058 296.47 598.896Z" fill="#263238"/>
<path d="M233.57 557.177L235.025 593.074C235.025 593.074 199.129 606.495 198.644 613.124L268.173 612.963L268.335 557.016L233.57 557.177Z" fill="#EF37FF"/>
<g opacity="0.6">
<g opacity="0.6">
<path opacity="0.6" d="M256.53 590.002C257.823 590.325 258.793 591.942 258.47 593.236C258.147 594.529 256.691 595.499 255.236 595.176C253.943 594.853 252.649 593.074 253.134 591.78C253.619 590.487 255.398 589.355 256.691 590.163" fill="white"/>
</g>
</g>
<g opacity="0.6">
<path d="M268.173 612.963V607.465L201.231 609.729C201.231 609.729 198.159 611.022 198.482 613.286L268.173 612.963Z" fill="#93079F"/>
</g>
<path d="M233.893 592.75C233.893 593.074 235.672 593.235 237.289 594.367C239.068 595.338 239.876 596.955 240.199 596.793C240.523 596.793 240.038 594.691 237.936 593.397C235.834 591.942 233.732 592.427 233.893 592.75Z" fill="#263238"/>
<path d="M226.616 595.661C226.616 595.984 228.071 596.631 229.203 597.925C230.335 599.38 230.658 600.835 230.982 600.835C231.305 600.835 231.467 598.895 230.012 597.116C228.556 595.499 226.616 595.338 226.616 595.661Z" fill="#263238"/>
<path d="M222.412 604.392C222.735 604.392 223.221 602.776 222.25 600.835C221.442 598.895 219.825 598.248 219.663 598.571C219.502 598.895 220.472 599.865 221.28 601.32C221.927 602.937 222.089 604.392 222.412 604.392Z" fill="#263238"/>
<path d="M234.378 584.504C234.54 584.827 236.157 584.342 237.935 584.504C239.876 584.666 241.331 585.151 241.493 584.989C241.654 584.666 240.199 583.534 237.935 583.372C235.833 583.049 234.216 584.181 234.378 584.504Z" fill="#263238"/>
<g opacity="0.3">
<path opacity="0.3" d="M233.894 564.291L234.055 570.598L268.335 570.274V564.453L233.894 564.291Z" fill="black"/>
</g>
<path d="M234.216 577.228C234.216 577.39 235.51 577.551 237.774 577.228C238.906 577.066 240.038 576.743 241.493 576.096C242.14 575.773 242.786 575.449 243.433 574.964C243.757 574.803 244.08 574.479 244.403 574.156C244.727 573.832 245.05 572.862 244.565 572.377C244.242 571.892 243.595 571.569 243.11 571.569C242.625 571.569 242.14 571.73 241.816 571.73C241.008 571.892 240.361 572.215 239.714 572.539C238.421 573.186 237.289 573.994 236.48 574.641C234.863 576.096 234.378 577.39 234.378 577.551C234.54 577.713 235.348 576.581 236.965 575.288C237.774 574.641 238.906 573.994 240.038 573.509C240.684 573.186 241.331 573.024 241.978 572.862C242.786 572.7 243.271 572.7 243.595 573.024C243.595 573.186 243.595 573.186 243.595 573.347C243.433 573.509 243.11 573.671 242.786 573.994C242.14 574.317 241.493 574.803 241.008 575.126C239.876 575.773 238.582 576.096 237.612 576.42C235.672 576.905 234.216 577.066 234.216 577.228Z" fill="#263238"/>
<path d="M234.701 577.712C234.863 577.712 235.51 576.58 235.672 574.317C235.672 573.185 235.672 571.891 235.186 570.436C235.025 569.789 234.701 568.981 234.216 568.334C233.731 567.687 233.246 566.717 231.953 566.555C231.306 566.555 230.659 567.04 230.497 567.525C230.336 568.011 230.174 568.334 230.174 568.819C230.012 569.628 230.012 570.436 230.174 571.244C230.336 572.7 230.982 573.993 231.629 574.802C232.923 576.581 234.378 577.066 234.378 576.904C234.54 576.742 233.246 576.095 232.276 574.317C231.791 573.508 231.306 572.376 231.144 571.083C231.144 570.436 231.144 569.789 231.144 569.142C231.306 568.334 231.467 567.849 231.791 567.849C232.114 567.849 232.761 568.334 233.084 568.981C233.408 569.628 233.731 570.274 233.893 570.921C234.378 572.215 234.54 573.347 234.54 574.317C234.863 576.419 234.54 577.712 234.701 577.712Z" fill="#263238"/>
<path d="M268.335 385.294C309.405 389.499 363.897 395.158 363.897 395.158L356.459 462.1C356.459 462.1 276.419 440.918 276.904 442.697C277.551 444.476 273.185 585.152 273.185 585.152H225L224.03 425.88C223.868 401.788 244.403 382.869 268.335 385.294Z" fill="#030229"/>
<path d="M462.371 412.297V432.995C462.371 447.062 446.201 462.1 432.134 462.1H421.138C412.568 462.1 398.986 455.794 392.033 450.781L387.829 447.709L337.541 603.261C337.541 603.261 280.139 592.913 280.139 591.134C280.139 589.355 319.108 463.717 337.056 405.344C344.332 381.575 369.881 367.669 393.488 375.754C394.297 376.077 395.105 376.401 395.914 376.724C421.623 387.234 462.371 412.297 462.371 412.297Z" fill="#030229"/>
<path d="M280.301 591.296C280.301 591.296 280.462 591.134 280.624 590.811C280.786 590.326 280.948 589.84 281.271 589.194C281.756 587.738 282.565 585.636 283.535 582.726C285.475 577.066 288.062 568.982 291.296 558.795C297.764 538.583 306.334 510.447 315.712 479.402C320.402 463.879 324.767 449.003 328.81 435.582C330.75 428.79 332.691 422.484 334.469 416.502C335.439 413.429 336.248 410.68 337.056 407.77C337.865 405.021 338.673 402.272 339.643 399.847C341.584 394.996 344.656 391.277 347.728 388.366C350.801 385.456 353.711 383.354 356.298 381.737C358.724 380.12 360.664 378.826 362.119 378.018C362.766 377.694 363.251 377.371 363.575 377.047C363.898 376.886 364.06 376.724 364.06 376.724C364.06 376.724 363.898 376.724 363.575 377.047C363.09 377.209 362.604 377.533 361.958 377.856C360.502 378.664 358.562 379.796 356.137 381.413C353.549 383.03 350.639 385.132 347.405 387.881C344.333 390.792 341.099 394.511 338.997 399.523C337.865 401.949 337.056 404.698 336.248 407.447C335.439 410.195 334.469 413.106 333.661 416.016C331.882 421.999 329.942 428.467 327.84 435.097C323.797 448.517 319.27 463.394 314.58 478.916C305.202 509.962 296.794 537.936 290.649 558.471C287.577 568.496 284.99 576.743 283.211 582.564C282.403 585.313 281.594 587.577 281.109 589.032C280.948 589.679 280.786 590.326 280.624 590.811C280.301 590.972 280.301 591.296 280.301 591.296Z" fill="#455A64"/>
<path d="M268.173 422.646C267.85 422.808 270.599 427.012 272.863 432.509C275.126 438.007 276.096 442.858 276.582 442.858C276.905 442.858 276.42 437.845 273.994 432.024C271.569 426.203 268.335 422.322 268.173 422.646Z" fill="#455A64"/>
<path d="M258.957 429.113C258.795 429.437 262.999 431.215 267.203 434.611C271.569 438.006 274.318 441.564 274.641 441.402C274.965 441.24 272.539 437.198 268.012 433.641C263.484 430.083 258.957 428.79 258.957 429.113Z" fill="#455A64"/>
<path d="M337.218 603.422C337.542 603.584 351.124 561.866 367.456 510.447C383.949 459.027 396.884 417.148 396.561 417.148C396.238 416.986 382.655 458.704 366.324 510.123C349.992 561.543 336.895 603.261 337.218 603.422Z" fill="#455A64"/>
<path d="M398.824 360.717L234.378 362.334L203.817 275.664L323.311 276.473L351.123 354.41L398.824 355.057V360.717Z" fill="#26C0E2"/>
<path d="M273.187 326.438C269.525 326.438 266.557 323.47 266.557 319.808C266.557 316.147 269.525 313.179 273.187 313.179C276.848 313.179 279.816 316.147 279.816 319.808C279.816 323.47 276.848 326.438 273.187 326.438Z" fill="white"/>
<path d="M412.243 126.256C410.626 120.435 406.422 117.686 400.762 115.746C395.103 113.805 388.473 114.937 383.784 118.494C380.55 120.92 378.125 124.477 374.406 125.771C368.261 127.873 360.985 123.345 355.002 126.094C351.445 127.711 349.504 132.077 350.313 135.796C351.283 139.515 355.002 142.426 358.883 142.264C354.84 143.719 353.547 149.54 355.972 153.098C358.398 156.655 363.249 158.11 367.453 157.302C371.657 156.493 375.376 153.906 378.61 150.996C381.844 148.085 384.754 144.851 388.15 142.264C391.545 139.677 395.75 137.736 400.115 137.898C405.936 138.221 410.949 142.587 413.536 147.762C416.123 152.936 416.77 158.919 417.094 164.74C417.417 170.561 417.579 176.544 419.196 182.041C419.357 182.688 419.681 183.497 420.327 183.658C421.298 183.982 422.106 183.011 422.591 182.041C427.927 172.178 431.323 161.344 432.455 150.187C433.102 143.719 432.94 137.575 429.382 132.239C425.663 126.741 416.608 122.699 412.243 126.256Z" fill="#030229"/>
<path d="M423.561 153.26L426.472 218.747C426.957 229.904 425.502 246.397 407.877 246.397C392.515 245.265 387.988 230.874 387.665 220.526C387.503 215.675 387.179 211.471 387.179 210.986C387.179 210.986 370.525 210.177 368.423 193.684C367.452 185.761 366.806 169.268 366.482 154.23C365.997 138.222 378.124 124.478 393.971 122.861L395.588 122.699C412.889 121.891 423.076 135.958 423.561 153.26Z" fill="#FFAA8C"/>
<path d="M387.017 210.663C387.017 210.663 397.527 210.339 407.876 202.254C407.876 202.254 403.995 214.705 387.502 214.867L387.017 210.663Z" fill="#EB996E"/>
<path d="M372.463 164.74C372.624 166.034 373.756 167.004 375.05 166.842C376.343 166.842 377.314 165.71 377.314 164.417C377.152 163.123 376.02 162.153 374.727 162.315C373.271 162.476 372.301 163.446 372.463 164.74Z" fill="#263238"/>
<path d="M370.846 161.991C371.169 162.314 372.786 160.697 375.373 160.535C377.96 160.212 379.901 161.344 380.062 161.02C380.224 160.859 379.901 160.374 378.931 159.888C378.122 159.403 376.667 158.918 375.05 159.08C373.433 159.242 372.139 160.05 371.493 160.697C370.846 161.182 370.684 161.829 370.846 161.991Z" fill="#263238"/>
<path d="M397.365 162.961C397.526 164.254 398.658 165.224 399.952 165.063C401.245 165.063 402.215 163.931 402.215 162.637C402.054 161.344 400.922 160.373 399.628 160.535C398.173 160.697 397.203 161.667 397.365 162.961Z" fill="#263238"/>
<path d="M395.749 159.727C396.072 160.051 397.689 158.434 400.276 158.272C402.863 157.949 404.804 159.081 404.965 158.757C405.127 158.595 404.804 158.11 403.834 157.625C403.025 157.14 401.57 156.655 399.953 156.817C398.336 156.978 397.042 157.787 396.395 158.434C395.749 159.081 395.587 159.566 395.749 159.727Z" fill="#263238"/>
<path d="M388.633 179.454C388.633 179.292 387.016 179.13 384.429 179.13C383.782 179.13 383.136 179.13 382.974 178.645C382.812 178.16 382.974 177.513 383.135 176.705C383.621 175.088 384.106 173.309 384.591 171.531C386.531 164.254 387.825 158.271 387.501 158.271C387.178 158.271 385.399 164.093 383.459 171.369C382.974 173.148 382.489 174.926 382.165 176.543C382.004 177.352 381.68 178.16 382.165 179.13C382.327 179.615 382.974 179.939 383.297 179.939C383.782 180.101 384.106 179.939 384.429 179.939C387.016 179.777 388.633 179.615 388.633 179.454Z" fill="#263238"/>
<path d="M396.234 180.424C395.748 180.424 396.072 183.173 393.97 185.437C391.868 187.701 388.796 187.701 388.957 188.024C388.957 188.186 389.604 188.509 390.898 188.347C392.191 188.186 393.808 187.701 395.102 186.407C396.395 185.113 396.88 183.335 396.88 182.203C396.719 181.071 396.395 180.424 396.234 180.424Z" fill="#263238"/>
<path d="M393.971 149.864C394.294 150.511 396.72 149.864 399.792 150.026C402.864 150.026 405.289 150.673 405.613 150.026C405.775 149.702 405.289 149.056 404.158 148.571C403.187 148.085 401.57 147.6 399.792 147.6C398.013 147.6 396.396 148.085 395.426 148.571C394.456 149.056 393.971 149.541 393.971 149.864Z" fill="#263238"/>
<path d="M371.009 154.553C371.494 155.038 373.273 154.23 375.213 154.068C377.316 153.745 379.094 154.068 379.418 153.421C379.579 153.098 379.256 152.613 378.447 152.128C377.639 151.643 376.345 151.319 374.89 151.481C373.435 151.643 372.303 152.289 371.656 152.936C371.009 153.583 370.848 154.23 371.009 154.553Z" fill="#263238"/>
<path d="M423.4 165.549C423.724 165.387 434.396 161.021 435.204 172.34C436.012 183.659 424.532 182.204 424.532 181.88C424.532 181.395 423.4 165.549 423.4 165.549Z" fill="#FFBE9D"/>
<path d="M427.604 177.191C427.604 177.191 427.765 177.353 428.089 177.515C428.412 177.676 429.059 177.676 429.544 177.515C430.676 177.03 431.646 175.089 431.484 172.987C431.484 172.017 431.161 171.047 430.676 170.238C430.191 169.43 429.706 168.945 429.059 168.783C428.412 168.621 428.089 169.106 427.927 169.43C427.765 169.753 427.927 169.915 427.765 170.077C427.765 170.077 427.442 169.915 427.604 169.43C427.604 169.268 427.765 168.945 427.927 168.621C428.251 168.46 428.574 168.298 429.059 168.298C429.868 168.298 430.838 169.106 431.323 169.915C431.808 170.723 432.131 171.855 432.293 172.987C432.455 175.251 431.323 177.515 429.868 178C429.059 178.323 428.412 178 428.089 177.838C427.765 177.515 427.604 177.353 427.604 177.191Z" fill="#EB996E"/>
<path d="M362.602 151.158C370.04 152.29 377.964 149.541 383.138 144.205C386.857 140.324 389.282 135.15 394.133 133.048C397.367 131.593 401.248 131.916 404.482 133.371C407.716 134.827 410.465 137.09 413.052 139.677C410.788 148.409 413.86 157.464 416.932 165.872C417.256 166.842 417.741 167.813 418.549 168.298C420.005 169.106 421.945 168.136 422.915 166.842C424.532 164.74 425.017 161.83 425.179 159.243C425.664 153.098 425.179 146.792 423.077 140.971C421.137 135.15 417.579 129.814 412.728 125.933C406.584 121.244 398.661 119.304 390.899 120.274C383.138 121.244 376.023 124.801 370.526 130.137C367.938 132.563 365.513 135.473 364.543 138.869" fill="#030229"/>
<path d="M586.555 517.672C580.734 514.761 573.943 514.276 567.636 515.408C564.241 516.055 560.683 517.025 558.258 519.612C555.994 522.199 555.509 526.727 558.096 528.991C559.713 530.284 561.977 530.446 564.079 530.446C569.092 530.446 574.589 529.476 578.632 532.548C580.896 534.327 582.513 537.075 585.1 538.046C587.849 538.854 590.759 537.237 592.214 534.812C593.67 532.386 593.67 529.314 593.023 526.727C593.185 526.565 592.376 520.582 586.555 517.672Z" fill="#3A974C"/>
<path d="M599.813 492.123C596.256 497.136 589.464 495.519 586.23 492.447C582.997 489.375 581.703 484.847 580.409 480.643C577.661 470.941 574.75 460.754 576.852 450.891C577.499 447.98 578.631 445.07 580.733 442.806C582.835 440.542 586.069 439.249 588.979 440.057C592.375 441.027 594.639 444.423 596.094 447.495C600.621 457.035 603.047 467.384 603.047 477.894C603.209 482.907 602.562 488.081 599.813 492.123Z" fill="#3A974C"/>
<path d="M609.515 499.4C605.634 494.872 604.987 488.243 606.604 482.583C608.383 476.924 612.102 472.073 616.629 468.031C621.804 463.342 627.948 459.784 634.578 457.521C637.165 456.55 639.914 455.904 642.662 456.227C645.411 456.55 648.16 457.844 649.454 460.269C651.394 463.827 649.454 468.192 647.513 471.75C644.118 478.056 640.075 484.039 635.709 489.698C632.152 494.226 628.11 498.753 622.774 500.694C617.438 502.796 611.778 502.472 609.029 498.753" fill="#3A974C"/>
<path d="M600.136 568.121C600.136 568.121 599.975 567.312 599.813 565.857C599.651 564.24 599.49 562.138 599.166 559.551C598.843 556.964 598.519 553.73 597.711 550.334C597.064 546.938 595.771 543.219 594.315 539.5C592.86 535.781 590.92 532.386 588.818 529.799C586.716 527.05 584.128 525.109 581.865 523.977C579.601 522.846 577.499 522.36 576.044 522.199C574.588 522.037 573.78 521.875 573.78 521.875C573.78 521.875 574.588 521.875 576.044 521.875C577.499 522.037 579.763 522.36 582.188 523.492C584.613 524.624 587.362 526.565 589.626 529.313C591.89 532.062 593.83 535.458 595.285 539.339C596.741 543.058 597.873 546.777 598.519 550.334C599.166 553.73 599.49 556.964 599.813 559.551C599.975 562.138 600.136 564.402 600.136 565.857C600.136 567.312 600.136 568.121 600.136 568.121Z" fill="#263238"/>
<path d="M599.651 563.27C599.651 563.27 599.651 562.947 599.651 562.138C599.651 561.33 599.651 560.359 599.651 559.066C599.651 556.479 599.651 552.598 599.49 547.909C599.328 538.53 598.519 528.343 596.902 514.114C595.447 500.693 593.507 485.009 591.405 474.822C590.92 472.558 590.435 470.456 590.111 468.677C589.626 466.899 589.303 465.282 588.979 463.988C588.656 462.856 588.494 461.886 588.333 461.078C588.171 460.431 588.171 460.107 588.171 460.107C588.171 460.107 588.333 460.431 588.494 461.078C588.656 461.886 588.979 462.856 589.303 463.988C589.626 465.282 590.111 466.737 590.596 468.677C591.081 470.456 591.566 472.558 592.052 474.822C594.154 484.039 596.256 496.974 597.873 511.204C599.49 525.595 600.136 538.53 600.136 548.07C600.136 552.76 600.136 556.64 599.975 559.228C599.975 560.521 599.813 561.491 599.813 562.3C599.651 562.947 599.651 563.27 599.651 563.27Z" fill="#263238"/>
<path d="M599.651 538.045C599.651 538.045 599.651 536.913 599.651 534.811C599.813 532.709 599.974 529.798 600.621 526.241C601.268 522.684 602.077 518.318 603.37 513.79C604.017 511.688 605.31 506.514 608.544 498.914C612.91 488.566 618.731 480.157 623.906 474.983C625.037 473.528 626.493 472.558 627.463 471.588C627.948 471.102 628.433 470.617 629.08 470.294C629.565 469.971 630.05 469.647 630.535 469.324C632.152 468.192 633.122 467.545 633.284 467.545C633.446 467.707 629.565 470.132 624.552 475.307C619.54 480.643 613.88 488.889 609.515 499.076C607.089 504.574 605.472 509.586 604.179 513.79C602.885 518.318 601.915 522.684 601.268 526.241C600.621 529.798 600.298 532.709 599.974 534.811C599.813 537.075 599.651 538.045 599.651 538.045Z" fill="#263238"/>
<path d="M623.906 582.511L621.319 616.953H577.014L574.427 582.511H623.906Z" fill="#FFD66B"/>
<path d="M569.09 568.929H628.109V582.512H569.09V568.929Z" fill="#FFD66B"/>
<path d="M621.788 623.451L624.386 616.983H574.26L577.163 623.451H621.788Z" fill="#FFD66B"/>
<path d="M575.397 593.669C575.397 593.669 575.397 593.831 575.558 593.993C575.72 594.154 575.882 594.478 576.205 594.801C576.852 595.61 577.66 596.742 578.792 598.035L578.954 598.197C580.571 595.933 582.673 593.023 585.26 589.465H584.937C586.877 592.214 588.979 595.125 591.243 598.359L591.405 598.682L591.566 598.359C593.83 595.61 596.417 592.699 599.004 589.465H598.519C598.681 589.627 598.843 589.789 599.004 589.95C601.268 592.861 603.532 595.61 605.634 598.197L605.796 598.52L605.957 598.197C608.221 594.963 610.323 592.052 612.264 589.304H611.94C615.012 592.861 617.6 595.771 619.702 598.035L619.863 598.197L620.025 598.035C620.995 596.256 621.804 594.963 622.45 593.993C622.774 593.508 622.936 593.184 623.097 592.861C623.259 592.537 623.259 592.537 623.259 592.537C623.259 592.537 623.097 592.699 622.936 592.861C622.774 593.184 622.45 593.508 622.289 593.831C621.642 594.801 620.833 596.095 619.702 597.873H619.863C617.923 595.61 615.336 592.537 612.264 588.98L612.102 588.818L611.94 588.98C610 591.729 607.898 594.64 605.634 597.712H606.119C604.017 595.125 601.753 592.214 599.489 589.465C599.328 589.304 599.166 589.142 599.004 588.98L598.843 588.657L598.681 588.98C596.094 592.052 593.668 595.125 591.243 597.873H591.728C589.464 594.639 587.362 591.729 585.422 589.142L585.26 588.818L585.098 589.142C582.673 592.699 580.409 595.771 578.954 598.035H579.116C577.984 596.742 577.014 595.61 576.367 594.801C576.043 594.478 575.882 594.154 575.72 593.993C575.397 593.831 575.397 593.669 575.397 593.669Z" fill="#030229"/>
<path d="M598.682 582.512C585.018 582.512 573.942 582.367 573.942 582.189C573.942 582.01 585.018 581.865 598.682 581.865C612.345 581.865 623.421 582.01 623.421 582.189C623.421 582.367 612.345 582.512 598.682 582.512Z" fill="#455A64"/>
<path d="M139.787 203.87L170.509 332.581H161.939L131.54 203.87H139.787Z" fill="#263238"/>
<path d="M151.592 288.599C152.077 291.024 137.524 361.201 137.524 361.201H144.477L155.472 305.577L151.592 288.599Z" fill="#263238"/>
<path d="M49.0738 454.016H193.307V606.981H49.0738V454.016Z" fill="#26C0E2"/>
<path d="M41.7977 476.329H48.9124V483.444H41.7977V476.329Z" fill="#263238"/>
<path d="M41.7977 498.805H48.9124V505.92H41.7977V498.805Z" fill="#263238"/>
<path d="M41.7977 521.443H48.9124V528.557H41.7977V521.443Z" fill="#263238"/>
<path d="M41.7977 543.918H48.9124V551.032H41.7977V543.918Z" fill="#263238"/>
<path d="M41.6355 523.383C41.6355 523.383 40.827 523.221 39.5334 522.898C38.0782 522.736 36.1378 522.251 33.389 522.251C30.8018 522.251 27.5679 522.736 24.6574 524.515C23.2021 525.485 21.7468 526.778 20.9383 528.557C19.9681 530.336 19.6448 532.276 19.8065 534.378C19.9682 536.318 20.6149 538.259 21.5851 539.876C22.5553 541.493 23.8489 542.786 25.3042 543.757C28.053 545.859 31.1252 546.667 33.7124 547.152C36.2995 547.476 38.4016 547.476 39.8569 547.314C41.3121 547.152 42.1206 546.99 42.1206 546.99C42.1206 546.99 41.3121 546.99 39.8569 546.99C38.4016 546.99 36.2995 546.99 33.8741 546.505C31.4486 546.02 28.5381 545.05 25.7892 543.11C23.2021 541.169 20.7767 537.935 20.615 534.216C20.4533 532.276 20.7766 530.497 21.5851 528.88C22.3936 527.263 23.6872 526.132 24.9807 525.161C27.7296 523.383 30.8018 522.898 33.389 522.736C35.9761 522.736 37.9165 522.898 39.3717 523.059C40.827 523.383 41.6355 523.544 41.6355 523.383Z" fill="#263238"/>
<path d="M43.4148 501.069C43.4148 501.069 43.2531 500.907 42.768 500.584C42.2829 500.422 41.6362 500.099 40.666 499.775C38.7256 499.129 35.8151 498.643 32.4194 499.29C31.611 499.452 30.6408 499.775 29.8323 500.26C29.0238 500.746 28.2153 501.716 27.8919 502.848C27.2452 504.95 28.0536 507.375 29.5089 509.316C30.3174 510.286 31.2876 511.094 32.4194 511.579C33.5513 512.064 35.1683 512.064 36.3001 511.418C37.432 510.771 38.5639 509.477 38.5639 508.022C38.5639 506.567 37.5937 505.111 36.3001 504.465C35.0066 503.818 33.5513 503.818 32.096 503.979C30.8024 504.303 29.5089 504.95 28.5387 505.758C26.4367 507.375 25.1431 509.801 24.9814 512.226C24.658 514.651 25.6282 516.915 26.76 518.694C28.0536 520.473 29.6706 521.604 31.1259 522.413C34.3598 524.03 37.2704 524.353 39.2107 524.515C40.1809 524.515 40.9894 524.677 41.4745 524.677C41.9596 524.677 42.2829 524.677 42.2829 524.677C42.2829 524.677 41.1511 524.515 39.2107 524.353C37.2704 524.03 34.5215 523.707 31.4492 522.09C29.994 521.281 28.377 520.149 27.2451 518.532C26.1132 516.915 25.3048 514.813 25.6282 512.549C25.9515 510.286 27.0834 508.184 29.0238 506.728C29.994 505.92 31.1259 505.435 32.2577 505.111C33.3896 504.788 34.6832 504.95 35.8151 505.435C36.947 505.92 37.5938 507.052 37.5938 508.184C37.5938 509.315 36.7853 510.286 35.8151 510.932C34.8449 511.579 33.5513 511.579 32.5811 511.094C31.4493 510.771 30.6408 509.962 29.994 509.154C28.5387 507.537 27.8919 505.273 28.377 503.333C28.8621 501.392 30.6408 500.422 32.4194 500.099C35.8151 499.29 38.5639 499.775 40.5043 500.26C42.4446 500.584 43.4148 501.231 43.4148 501.069Z" fill="#263238"/>
<path d="M43.2533 479.078C43.2533 479.078 42.7682 478.917 41.6363 478.755C40.6661 478.755 39.0492 478.755 37.2705 479.402C35.4918 480.048 33.5515 481.18 31.9345 482.959C30.3176 484.899 29.1857 487.486 29.1857 490.397C29.024 493.308 29.9941 496.056 31.4494 497.997C32.9047 499.937 34.8451 501.231 36.6237 501.877C38.4024 502.524 39.8577 502.686 40.8278 502.686C41.798 502.686 42.4448 502.524 42.4448 502.524C42.4448 502.363 40.0194 502.848 36.7854 501.231C35.1685 500.422 33.3898 499.29 32.0962 497.35C30.6409 495.41 29.8324 492.984 29.9941 490.235C30.1558 487.486 31.126 485.061 32.5813 483.282C34.0366 481.504 35.9769 480.372 37.5939 479.725C40.9895 478.755 43.2533 479.24 43.2533 479.078Z" fill="#263238"/>
<path d="M150.457 372.843C150.457 372.843 149.81 373.814 149.164 375.754C148.517 377.694 147.87 380.605 147.223 384.486C146.576 388.366 146.091 393.056 145.606 398.392C145.121 403.889 144.636 410.034 143.828 416.987C143.666 418.765 143.342 420.382 143.019 422.161C142.696 423.94 142.211 425.718 141.402 427.335C140.594 428.952 139.3 430.407 137.845 431.701C136.39 432.995 134.934 434.288 133.156 435.258C129.76 437.36 125.718 438.816 121.513 439.301C117.309 439.786 112.782 439.139 108.739 437.037C104.697 435.097 101.463 431.216 100.493 426.688C100.008 424.425 100.169 421.999 100.978 419.736C101.786 417.472 103.403 415.693 105.505 414.399C107.446 413.106 109.871 412.297 112.297 412.136C114.722 411.974 117.309 412.621 119.25 414.238C120.22 415.046 121.028 415.855 121.513 416.987C121.999 418.119 122.16 419.25 121.999 420.544C121.513 422.969 119.735 425.071 117.471 426.203C115.207 427.497 112.62 427.982 110.033 428.305C107.446 428.629 104.859 428.79 102.433 428.79C97.2589 428.952 92.2463 428.467 87.3954 427.982C77.5319 426.85 67.9918 425.233 58.9368 425.233C49.8818 425.071 40.9885 426.365 33.5504 430.084C29.8314 431.863 26.5974 434.288 24.172 437.199C21.5848 440.109 19.9679 443.505 19.3211 446.901C17.8658 453.853 19.4828 460.321 22.0699 465.172C24.8188 470.023 28.5378 473.257 31.61 475.359C34.844 477.461 37.5928 478.755 39.5332 479.402C41.4735 480.048 42.4437 480.372 42.4437 480.372C42.4437 480.372 42.1203 480.21 41.6353 480.048C41.1502 479.887 40.3417 479.563 39.5332 479.24C37.5928 478.431 34.844 477.3 31.7717 475.036C28.6995 472.772 24.9805 469.538 22.3933 464.849C19.8062 460.16 18.3509 453.692 19.8062 447.062C20.6147 443.828 22.0699 440.433 24.6571 437.684C27.0826 434.935 30.3165 432.51 33.8738 430.893C41.1501 427.335 49.8818 426.042 58.9368 426.203C67.9918 426.365 77.5319 427.982 87.3954 428.952C92.408 429.437 97.4206 429.922 102.595 429.761C105.182 429.761 107.769 429.599 110.356 429.276C112.944 428.952 115.692 428.467 117.956 427.174C120.382 425.88 122.322 423.616 122.807 420.867C123.13 419.574 122.807 418.119 122.322 416.825C121.675 415.531 120.867 414.561 119.735 413.753C117.633 412.136 114.884 411.489 112.297 411.489C109.71 411.651 107.122 412.459 105.02 413.914C102.918 415.37 101.14 417.31 100.169 419.736C99.1993 422.161 99.1993 424.748 99.6844 427.012C100.816 431.863 104.212 435.743 108.416 437.846C112.62 439.948 117.309 440.594 121.513 440.109C125.879 439.624 129.922 438.169 133.479 436.067C135.258 434.935 136.875 433.803 138.168 432.348C139.623 430.893 140.917 429.599 141.887 427.82C142.696 426.042 143.181 424.263 143.504 422.484C143.828 420.706 144.151 418.927 144.313 417.31C145.121 410.519 145.606 404.213 146.091 398.715C146.576 393.217 147.062 388.528 147.547 384.809C148.032 380.928 148.678 378.018 149.325 376.077C149.649 375.107 149.81 374.299 150.134 373.975C150.295 373.005 150.457 372.843 150.457 372.843Z" fill="#263238"/>
<path d="M57.1595 600.513C57.1595 600.513 57.1595 600.351 57.1595 599.866C57.1595 599.381 57.1595 598.734 57.1595 597.925C57.1595 596.147 57.1595 593.721 57.1595 590.326C57.1595 583.696 57.1595 573.994 57.3212 561.705C57.3212 537.127 57.4829 502.039 57.4829 459.998L57.1595 460.321C95.3199 460.321 139.948 460.321 187.649 460.321L187.164 459.836C187.164 511.579 187.164 559.765 187.164 600.351L187.487 600.027C148.356 600.027 115.855 600.189 93.0562 600.189C81.5757 600.189 72.6824 600.189 66.5379 600.351C63.4657 600.351 61.2019 600.351 59.5849 600.351C57.968 600.513 57.1595 600.513 57.1595 600.513C57.1595 600.513 57.968 600.513 59.5849 600.513C61.2019 600.513 63.4657 600.513 66.5379 600.513C72.6824 600.513 81.5757 600.513 92.8945 600.674C115.694 600.674 148.356 600.836 187.649 600.836H187.972V600.513C187.972 559.927 187.972 511.579 187.972 459.998V459.513H187.487C139.948 459.513 95.32 459.513 56.9978 459.513H56.6744V459.836C56.6744 501.878 56.8361 537.127 56.8361 561.705C56.8361 573.994 56.8361 583.696 56.9978 590.326C56.9978 593.56 56.9978 596.147 56.9978 597.764C56.9978 598.572 56.9978 599.219 56.9978 599.704C57.1595 600.351 57.1595 600.513 57.1595 600.513Z" fill="#263238"/>
<path d="M94.5105 477.947C94.1533 477.947 93.8638 477.658 93.8638 477.3C93.8638 476.943 94.1533 476.654 94.5105 476.654C94.8678 476.654 95.1573 476.943 95.1573 477.3C95.1573 477.658 94.8678 477.947 94.5105 477.947Z" fill="#263238"/>
<path d="M90.9537 477.946C90.5965 477.946 90.3069 477.657 90.3069 477.3C90.3069 476.942 90.5965 476.653 90.9537 476.653C91.3109 476.653 91.6005 476.942 91.6005 477.3C91.6005 477.657 91.3109 477.946 90.9537 477.946Z" fill="#263238"/>
<path d="M87.2341 477.946C86.8769 477.946 86.5873 477.657 86.5873 477.3C86.5873 476.942 86.8769 476.653 87.2341 476.653C87.5913 476.653 87.8809 476.942 87.8809 477.3C87.8809 477.657 87.5913 477.946 87.2341 477.946Z" fill="#263238"/>
<path d="M83.4136 478.044C83.0564 478.044 82.7668 477.755 82.7668 477.397C82.7668 477.04 83.0564 476.751 83.4136 476.751C83.7708 476.751 84.0604 477.04 84.0604 477.397C84.0604 477.755 83.7708 478.044 83.4136 478.044Z" fill="#263238"/>
<path d="M79.695 478.044C79.3378 478.044 79.0483 477.755 79.0483 477.397C79.0483 477.04 79.3378 476.751 79.695 476.751C80.0522 476.751 80.3419 477.04 80.3419 477.397C80.3419 477.755 80.0522 478.044 79.695 478.044Z" fill="#263238"/>
<path d="M76.0772 477.946C75.72 477.946 75.4304 477.657 75.4304 477.3C75.4304 476.942 75.72 476.653 76.0772 476.653C76.4344 476.653 76.724 476.942 76.724 477.3C76.724 477.657 76.4344 477.946 76.0772 477.946Z" fill="#263238"/>
<path d="M72.5213 477.946C72.1641 477.946 71.8745 477.657 71.8745 477.3C71.8745 476.942 72.1641 476.653 72.5213 476.653C72.8785 476.653 73.1682 476.942 73.1682 477.3C73.1682 477.657 72.8785 477.946 72.5213 477.946Z" fill="#263238"/>
<path d="M74.138 480.534C73.7808 480.534 73.4912 480.244 73.4912 479.887C73.4912 479.53 73.7808 479.24 74.138 479.24C74.4952 479.24 74.7849 479.53 74.7849 479.887C74.7849 480.244 74.4952 480.534 74.138 480.534Z" fill="#263238"/>
<path d="M77.7545 480.632C77.3973 480.632 77.1077 480.342 77.1077 479.985C77.1077 479.628 77.3973 479.338 77.7545 479.338C78.1117 479.338 78.4013 479.628 78.4013 479.985C78.4013 480.342 78.1117 480.632 77.7545 480.632Z" fill="#263238"/>
<path d="M81.6342 480.632C81.277 480.632 80.9875 480.342 80.9875 479.985C80.9875 479.628 81.277 479.338 81.6342 479.338C81.9914 479.338 82.281 479.628 82.281 479.985C82.281 480.342 81.9914 480.632 81.6342 480.632Z" fill="#263238"/>
<path d="M85.3538 480.632C84.9966 480.632 84.707 480.342 84.707 479.985C84.707 479.628 84.9966 479.338 85.3538 479.338C85.711 479.338 86.0006 479.628 86.0006 479.985C86.0006 480.342 85.711 480.632 85.3538 480.632Z" fill="#263238"/>
<path d="M89.1758 480.534C88.8186 480.534 88.529 480.244 88.529 479.887C88.529 479.53 88.8186 479.24 89.1758 479.24C89.533 479.24 89.8226 479.53 89.8226 479.887C89.8226 480.244 89.533 480.534 89.1758 480.534Z" fill="#263238"/>
<path d="M93.0555 480.534C92.6983 480.534 92.4087 480.244 92.4087 479.887C92.4087 479.53 92.6983 479.24 93.0555 479.24C93.4127 479.24 93.7023 479.53 93.7023 479.887C93.7023 480.244 93.4127 480.534 93.0555 480.534Z" fill="#263238"/>
<path d="M94.5109 483.282C94.1537 483.282 93.8642 482.993 93.8642 482.635C93.8642 482.278 94.1537 481.989 94.5109 481.989C94.8681 481.989 95.1577 482.278 95.1577 482.635C95.1577 482.993 94.8681 483.282 94.5109 483.282Z" fill="#263238"/>
<path d="M90.9537 483.282C90.5965 483.282 90.3069 482.993 90.3069 482.635C90.3069 482.278 90.5965 481.989 90.9537 481.989C91.3109 481.989 91.6005 482.278 91.6005 482.635C91.6005 482.993 91.3109 483.282 90.9537 483.282Z" fill="#263238"/>
<path d="M87.2341 483.282C86.8769 483.282 86.5873 482.993 86.5873 482.635C86.5873 482.278 86.8769 481.989 87.2341 481.989C87.5913 481.989 87.8809 482.278 87.8809 482.635C87.8809 482.993 87.5913 483.282 87.2341 483.282Z" fill="#263238"/>
<path d="M83.4136 483.38C83.0564 483.38 82.7668 483.09 82.7668 482.733C82.7668 482.376 83.0564 482.086 83.4136 482.086C83.7708 482.086 84.0604 482.376 84.0604 482.733C84.0604 483.09 83.7708 483.38 83.4136 483.38Z" fill="#263238"/>
<path d="M79.695 483.38C79.3378 483.38 79.0483 483.09 79.0483 482.733C79.0483 482.376 79.3378 482.086 79.695 482.086C80.0522 482.086 80.3419 482.376 80.3419 482.733C80.3419 483.09 80.0522 483.38 79.695 483.38Z" fill="#263238"/>
<path d="M76.0772 483.282C75.72 483.282 75.4304 482.993 75.4304 482.635C75.4304 482.278 75.72 481.989 76.0772 481.989C76.4344 481.989 76.724 482.278 76.724 482.635C76.724 482.993 76.4344 483.282 76.0772 483.282Z" fill="#263238"/>
<path d="M72.5213 483.282C72.1641 483.282 71.8745 482.993 71.8745 482.635C71.8745 482.278 72.1641 481.989 72.5213 481.989C72.8785 481.989 73.1682 482.278 73.1682 482.635C73.1682 482.993 72.8785 483.282 72.5213 483.282Z" fill="#263238"/>
<path d="M74.138 485.707C73.7808 485.707 73.4912 485.418 73.4912 485.061C73.4912 484.703 73.7808 484.414 74.138 484.414C74.4952 484.414 74.7849 484.703 74.7849 485.061C74.7849 485.418 74.4952 485.707 74.138 485.707Z" fill="#263238"/>
<path d="M77.7545 485.805C77.3973 485.805 77.1077 485.515 77.1077 485.158C77.1077 484.801 77.3973 484.511 77.7545 484.511C78.1117 484.511 78.4013 484.801 78.4013 485.158C78.4013 485.515 78.1117 485.805 77.7545 485.805Z" fill="#263238"/>
<path d="M81.6342 485.805C81.277 485.805 80.9875 485.515 80.9875 485.158C80.9875 484.801 81.277 484.511 81.6342 484.511C81.9914 484.511 82.281 484.801 82.281 485.158C82.281 485.515 81.9914 485.805 81.6342 485.805Z" fill="#263238"/>
<path d="M85.3538 485.805C84.9966 485.805 84.707 485.515 84.707 485.158C84.707 484.801 84.9966 484.511 85.3538 484.511C85.711 484.511 86.0006 484.801 86.0006 485.158C86.0006 485.515 85.711 485.805 85.3538 485.805Z" fill="#263238"/>
<path d="M89.1758 485.707C88.8186 485.707 88.529 485.418 88.529 485.061C88.529 484.703 88.8186 484.414 89.1758 484.414C89.533 484.414 89.8226 484.703 89.8226 485.061C89.8226 485.418 89.533 485.707 89.1758 485.707Z" fill="#263238"/>
<path d="M93.0555 485.707C92.6983 485.707 92.4087 485.418 92.4087 485.061C92.4087 484.703 92.6983 484.414 93.0555 484.414C93.4127 484.414 93.7023 484.703 93.7023 485.061C93.7023 485.418 93.4127 485.707 93.0555 485.707Z" fill="#263238"/>
<path d="M94.5109 488.619C94.1537 488.619 93.8642 488.329 93.8642 487.972C93.8642 487.615 94.1537 487.325 94.5109 487.325C94.8681 487.325 95.1577 487.615 95.1577 487.972C95.1577 488.329 94.8681 488.619 94.5109 488.619Z" fill="#263238"/>
<path d="M90.9537 488.619C90.5965 488.619 90.3069 488.329 90.3069 487.972C90.3069 487.615 90.5965 487.325 90.9537 487.325C91.3109 487.325 91.6005 487.615 91.6005 487.972C91.6005 488.329 91.3109 488.619 90.9537 488.619Z" fill="#263238"/>
<path d="M87.2341 488.619C86.8769 488.619 86.5873 488.329 86.5873 487.972C86.5873 487.615 86.8769 487.325 87.2341 487.325C87.5913 487.325 87.8809 487.615 87.8809 487.972C87.8809 488.329 87.5913 488.619 87.2341 488.619Z" fill="#263238"/>
<path d="M83.4136 488.717C83.0564 488.717 82.7668 488.427 82.7668 488.07C82.7668 487.713 83.0564 487.423 83.4136 487.423C83.7708 487.423 84.0604 487.713 84.0604 488.07C84.0604 488.427 83.7708 488.717 83.4136 488.717Z" fill="#263238"/>
<path d="M79.695 488.717C79.3378 488.717 79.0483 488.427 79.0483 488.07C79.0483 487.713 79.3378 487.423 79.695 487.423C80.0522 487.423 80.3419 487.713 80.3419 488.07C80.3419 488.427 80.0522 488.717 79.695 488.717Z" fill="#263238"/>
<path d="M76.0772 488.619C75.72 488.619 75.4304 488.329 75.4304 487.972C75.4304 487.615 75.72 487.325 76.0772 487.325C76.4344 487.325 76.724 487.615 76.724 487.972C76.724 488.329 76.4344 488.619 76.0772 488.619Z" fill="#263238"/>
<path d="M72.5213 488.619C72.1641 488.619 71.8745 488.329 71.8745 487.972C71.8745 487.615 72.1641 487.325 72.5213 487.325C72.8785 487.325 73.1682 487.615 73.1682 487.972C73.1682 488.329 72.8785 488.619 72.5213 488.619Z" fill="#263238"/>
<path d="M74.138 491.044C73.7808 491.044 73.4912 490.755 73.4912 490.397C73.4912 490.04 73.7808 489.751 74.138 489.751C74.4952 489.751 74.7849 490.04 74.7849 490.397C74.7849 490.755 74.4952 491.044 74.138 491.044Z" fill="#263238"/>
<path d="M77.7545 491.142C77.3973 491.142 77.1077 490.853 77.1077 490.496C77.1077 490.138 77.3973 489.849 77.7545 489.849C78.1117 489.849 78.4013 490.138 78.4013 490.496C78.4013 490.853 78.1117 491.142 77.7545 491.142Z" fill="#263238"/>
<path d="M81.6342 491.142C81.277 491.142 80.9875 490.853 80.9875 490.496C80.9875 490.138 81.277 489.849 81.6342 489.849C81.9914 489.849 82.281 490.138 82.281 490.496C82.281 490.853 81.9914 491.142 81.6342 491.142Z" fill="#263238"/>
<path d="M85.3538 491.142C84.9966 491.142 84.707 490.853 84.707 490.496C84.707 490.138 84.9966 489.849 85.3538 489.849C85.711 489.849 86.0006 490.138 86.0006 490.496C86.0006 490.853 85.711 491.142 85.3538 491.142Z" fill="#263238"/>
<path d="M89.1758 491.044C88.8186 491.044 88.529 490.755 88.529 490.397C88.529 490.04 88.8186 489.751 89.1758 489.751C89.533 489.751 89.8226 490.04 89.8226 490.397C89.8226 490.755 89.533 491.044 89.1758 491.044Z" fill="#263238"/>
<path d="M93.0555 491.044C92.6983 491.044 92.4087 490.755 92.4087 490.397C92.4087 490.04 92.6983 489.751 93.0555 489.751C93.4127 489.751 93.7023 490.04 93.7023 490.397C93.7023 490.755 93.4127 491.044 93.0555 491.044Z" fill="#263238"/>
<path d="M620.348 361.202V376.725H534.81V606.981H526.887V376.725L169.376 378.503V606.981H161.614V378.018L106.475 378.503V359.908L620.348 361.202Z" fill="#FF8F6B"/>
<path d="M565.532 373.652L531.738 397.907L534.81 400.818L568.766 375.108L565.532 373.652Z" fill="#FF8F6B"/>
<path d="M129.761 375.916L169.053 403.89L166.142 406.639L126.688 377.372L129.761 375.916Z" fill="#FF8F6B"/>
<path d="M407.393 355.542H495.841V362.01H407.393V355.542Z" fill="#263238"/>
</svg>
